<svg xmlns="http://www.w3.org/2000/svg" viewBox="0 0 100 100">
<path d="M56.7,54.9H43.1v-3.8h13.6V54.9z M56.8,70.1H43.2v3.8h13.6V70.1z M30.3,51.1H16.7v3.8h13.6V51.1z M30.4,70.1H16.8v3.8h13.6
	V70.1z M83.2,51.1H69.6v3.8h13.6V51.1z M83.3,70.1H69.7v3.8h13.6V70.1z M98.5,6.1v20.3v3.8V100h-97V30.2v-3.8V6.1H18V0h3.8v6.1h16.1
	V0h3.8v6.1h16.1V0h3.8v6.1h16.1V0h3.8v6.1H98.5z M94.7,30.2H5.3v66h89.4V30.2z M94.7,26.4V9.9h-13v6.1h-3.8V9.9H61.7v6.1h-3.8V9.9
	H41.8v6.1h-3.8V9.9H21.8v6.1H18V9.9H5.3v16.5H94.7z"/>
</svg>
