<svg xmlns="http://www.w3.org/2000/svg" viewBox="0 0 100 100">
	<path d="M100,72.7l-6.2-7.2l6.1-7.1l-7.6-10.5h-5.6l4.7-2.9l1.2-12.9l-8.9-2.9l1.6-9.4l-9-3l1.6-9.3l-11.9-5L1.2,41.6L0,54.6
		l8.9,2.9l-1.6,9.4l5.3,1.7L9,72.7l6.2,7.2L9.1,87l7.6,10.5h75.5L99.9,87l-6.1-7.1L100,72.7z M11.4,64.4l0.5-2.8l1.1-6.6l-1.2-0.4
		l-8-2.6l0.7-8.2L66.1,6.6l7.5,3.2L72,19.3l9.1,3l-1.6,9.4l9.2,3l-0.7,8.2l-8.3,5l-6.1,3.7l-11.8,7.2l-6.1,3.7L33.1,76l-3.7,2.2
		L26.4,80l-7.5-3.2l1.6-9.5l-1.6-0.5l-3.8-1.2L11.4,64.4z M33.1,80.2l29.6-17.9h13.2V83H33.1V80.2z M16.3,69.8L16.3,69.8l-0.8,4.8
		l-1.7-1.9L16.3,69.8z M95.3,87.2l-4.8,6.6H18.6l-4.8-6.6l5.4-6.2l7.5,3.2l2.8-1.7v4.2h50.1v-28H68.7l11.8-7.2h9.8l4.8,6.6l-6.3,7.3
		l6.2,7.2l-6.2,7.2L95.3,87.2z"/>
	<path d="M22,51.5L29.5,64l2.5,4.2l1.1-0.7l8.7-5.2l6.1-3.7l11.8-7.2l6.1-3.7l9.2-5.5l-14.4-24L17.6,44.3l2.1,3.6L22,51.5z
		 M59.3,23.4l10.6,17.7l-11.2,6.8l-6.1,3.7l-11.8,7.2l-6.1,3.7l-1.5,0.9L33.1,63l-2.6-4.3l-4.3-7.2L24,47.9l-1.4-2.3L59.3,23.4z"/>
</svg>
