<svg xmlns="http://www.w3.org/2000/svg" viewBox="0 0 100 26">

    <path style="fill:#E55C38;" d="M17.1,9.8c-0.6,0.4-1.2,0.9-1.9,1.4c-1.9,1.6-3.8,4.1-4.7,8.7c-0.8-1-12.5-9.6-10.1-16.2
			c2.2-6,9.2-3.6,10.1-0.3c0-0.1,0.1-0.2,0.1-0.3c0.3-0.7,0.8-1.3,1.6-1.9c2.5-1.7,6.8-1.9,8.4,2.5C21.6,7.1,19.6,8.1,17.1,9.8z"/>

    <path style="fill:#1D1D7C;" d="M20.9,22.4c0.1-0.1,0.3-0.2,0.4-0.3c0.2-0.1,0.3-0.1,0.5-0.1c0.3,0,0.6,0.1,0.8,0.3
	c0.2,0.2,0.3,0.5,0.3,0.7s-0.1,0.6-0.4,0.9c-0.5,0.5-1,0.9-1.6,1.2c-0.6,0.3-1.2,0.4-1.9,0.4c-0.4,0-0.9-0.1-1.3-0.2
	c-0.4-0.1-0.8-0.3-1.2-0.5c-0.4-0.2-0.7-0.5-1-0.9c-0.3-0.4-0.5-0.8-0.7-1.2v0c-0.4-1-0.6-1.9-0.5-2.9c0-0.7,0.2-1.4,0.5-2.1
	c0.3-0.7,0.6-1.4,1-2s1-1.1,1.6-1.4s1.3-0.6,2-0.6c0.2,0,0.5,0,0.7,0c0.2,0,0.4,0.1,0.7,0.2c0.5,0.2,0.9,0.4,1.2,0.6
	c0.4,0.2,0.7,0.5,1.1,0.9c0.2,0.3,0.2,0.5,0.2,0.7c0,0.2,0,0.4-0.1,0.6c-0.1,0.2-0.2,0.3-0.4,0.4c-0.2,0.1-0.4,0.1-0.6,0.1
	c-0.2,0-0.5-0.1-0.8-0.2c-0.3-0.4-0.7-0.6-1-0.8c-0.3-0.2-0.6-0.2-0.9-0.2c-0.4,0-0.8,0.1-1.1,0.4c-0.3,0.2-0.6,0.6-0.9,1
	c-0.2,0.4-0.4,0.9-0.6,1.4c-0.1,0.5-0.2,1-0.2,1.5c0,0.3,0,0.6,0.1,0.9c0,0.3,0.1,0.6,0.2,0.8c0.2,0.5,0.5,0.9,0.8,1.1
	c0.3,0.2,0.7,0.4,1.1,0.4c0.3,0,0.6-0.1,0.9-0.2C20.3,22.9,20.6,22.7,20.9,22.4L20.9,22.4z M34.7,24c0.1,0.3,0.1,0.5,0.1,0.7
	c-0.1,0.2-0.2,0.4-0.3,0.6c-0.2,0.1-0.4,0.2-0.7,0.3c-0.3,0-0.5,0-0.8-0.2c-0.1-0.1-0.3-0.3-0.4-0.4c-0.1-0.1-0.2-0.3-0.3-0.4
	c-0.6,0.5-1.1,0.7-1.7,0.9c-0.5,0.1-1.1,0.2-1.7,0.2c-0.4,0-0.9,0-1.3-0.1c-0.4-0.1-0.8-0.3-1.3-0.6c-0.6-0.5-1.1-1-1.3-1.6
	c-0.3-0.6-0.4-1.3-0.4-2c0-0.7,0.1-1.4,0.3-2c0.2-0.6,0.5-1.2,0.9-1.8c0.4-0.6,0.8-1.1,1.2-1.5c0.5-0.5,1-0.9,1.5-1.2
	c0.1-0.1,0.3-0.1,0.5-0.2c0.2-0.1,0.4-0.2,0.7-0.2c0.3-0.1,0.5-0.1,0.8-0.2c0.3,0,0.6-0.1,0.8-0.1c0.5,0,1,0.1,1.4,0.2
	c0.4,0.1,0.7,0.4,0.9,0.9c0,0.5,0,0.9,0,1.3s0,0.6,0,0.8c0,0.2,0,0.4,0,0.6c0,0.2,0,0.3,0,0.4c0,0.6,0,1.2,0,1.8
	c0,0.6,0.1,1.3,0.2,1.9c0,0.2,0.1,0.4,0.2,0.7c0.1,0.3,0.3,0.5,0.4,0.7h0c0.1,0.2,0.2,0.3,0.3,0.5C34.7,23.9,34.7,24,34.7,24z
	 M31.4,22.2c-0.1-0.6-0.2-1.2-0.2-1.8c0-0.6,0-1.3,0-1.9c0-0.4,0-0.8,0-1.2s0-0.7,0-1c-0.3,0-0.6,0.1-0.9,0.2
	c-0.3,0.1-0.5,0.2-0.6,0.3c-0.4,0.2-0.8,0.5-1.2,0.9c-0.4,0.4-0.6,0.8-0.9,1.2c-0.2,0.5-0.4,0.9-0.5,1.4c-0.1,0.5-0.1,1,0,1.5
	c0,0.4,0.2,0.7,0.4,0.9c0.2,0.2,0.4,0.4,0.7,0.6c0.3,0.1,0.6,0.2,0.9,0.2c0.3,0,0.6-0.1,0.9-0.2C30.3,23.1,30.8,22.7,31.4,22.2z
	 M39.6,23.9c0.4,0.3,0.7,0.7,0.7,1c0,0.2,0,0.4-0.1,0.6c-0.1,0.2-0.2,0.3-0.4,0.4c-0.2,0.1-0.4,0.2-0.6,0.2c-0.2,0-0.5-0.1-0.7-0.2
	l-1.1-0.7c-0.1-0.1-0.2-0.3-0.3-0.4c0-0.1-0.1-0.3-0.1-0.5V10.4c0.1-0.3,0.2-0.6,0.4-0.8c0.2-0.2,0.5-0.3,0.7-0.3s0.5,0.1,0.7,0.2
	c0.2,0.2,0.4,0.4,0.5,0.7v13.4c0,0,0.1,0.1,0.1,0.1C39.5,23.8,39.5,23.8,39.6,23.9z M49.1,24.4c0-1.1,0-2,0-2.7s0-1.3,0-1.8
	c0-0.5,0-0.9,0-1.1c0-0.3,0-0.5,0-0.6c0-0.2,0-0.3,0-0.3c0-0.1,0-0.1,0-0.2c-0.2-0.5-0.5-0.8-0.8-1.1c-0.4-0.3-0.8-0.4-1.2-0.3
	c-0.2,0-0.3,0.1-0.4,0.1c-0.1,0.1-0.2,0.1-0.3,0.2c-0.1,0.1-0.2,0.2-0.4,0.4c-0.1,0.2-0.3,0.4-0.5,0.6v6.9c0,0.4-0.2,0.7-0.4,0.9
	c-0.3,0.2-0.5,0.3-0.8,0.3c-0.3,0-0.5-0.1-0.8-0.3c-0.2-0.2-0.4-0.5-0.4-0.9v-9.7c0.2-0.7,0.6-1,1.2-1c0.2,0,0.4,0.1,0.6,0.2
	c0.2,0.1,0.4,0.3,0.5,0.5c0.2-0.2,0.5-0.3,0.9-0.4c0.3-0.1,0.7-0.2,1.1-0.2c0.6,0,1.2,0.1,1.8,0.4c0.6,0.3,1.1,0.6,1.5,1.1
	c0.2-0.2,0.3-0.3,0.6-0.5c0.2-0.2,0.4-0.3,0.6-0.5c0.2-0.1,0.5-0.3,0.7-0.4c0.2-0.1,0.5-0.1,0.7-0.1c0.5,0,1,0.1,1.6,0.3
	c0.5,0.2,1,0.4,1.4,0.7c0.4,0.3,0.7,0.7,1,1.1c0.2,0.4,0.4,0.9,0.4,1.3v7c0,0.4-0.2,0.7-0.4,0.9c-0.3,0.2-0.5,0.3-0.8,0.3
	c-0.3,0-0.6-0.1-0.8-0.3c-0.2-0.2-0.4-0.5-0.4-0.9v-6.8c-0.2-0.5-0.4-0.9-0.8-1.1c-0.3-0.2-0.7-0.3-1-0.3c-0.4,0-0.7,0.1-1,0.3
	c-0.3,0.2-0.6,0.6-0.8,1.1l0,6.7c0,0.4-0.1,0.7-0.4,0.9c-0.2,0.2-0.5,0.3-0.8,0.3c-0.3,0-0.6-0.1-0.8-0.3
	C49.3,25,49.2,24.8,49.1,24.4z M59.1,23.4c-0.2-0.5-0.2-0.9,0-1.2c0.2-0.3,0.5-0.5,1-0.5c0.3,0,0.6,0.1,0.9,0.3
	c0.3,0.5,0.8,0.9,1.2,1.2c0.5,0.3,1,0.4,1.5,0.3c0.2-0.1,0.5-0.1,0.7-0.3c0.2-0.1,0.3-0.3,0.4-0.5c0.1-0.2,0.1-0.4,0.1-0.6
	c0-0.2-0.1-0.4-0.2-0.6c-0.1-0.2-0.3-0.4-0.5-0.6c-0.2-0.1-0.4-0.2-0.5-0.3c-0.2-0.1-0.4-0.1-0.5-0.2c-0.2,0-0.3-0.1-0.5-0.1
	c-0.2-0.1-0.5-0.1-0.7-0.2c-0.2-0.1-0.5-0.2-0.7-0.3c-0.2-0.1-0.5-0.3-0.7-0.4c-0.2-0.2-0.4-0.4-0.6-0.7c-0.2-0.3-0.3-0.5-0.4-0.8
	c-0.1-0.3-0.1-0.6-0.1-0.8c0-0.4,0.1-0.7,0.2-1.1c0.1-0.4,0.3-0.7,0.5-1c0.2-0.3,0.5-0.6,0.8-0.8c0.3-0.2,0.6-0.4,1-0.5
	c0.7-0.2,1.4-0.2,2.2-0.1c0.7,0.1,1.4,0.4,2,0.7c0.2,0.2,0.4,0.3,0.5,0.5c0.1,0.2,0.2,0.4,0.2,0.5c0,0.2-0.1,0.4-0.2,0.5
	c-0.1,0.2-0.2,0.3-0.4,0.4c-0.2,0.1-0.4,0.2-0.6,0.2c-0.2,0-0.5-0.1-0.7-0.2c-0.2-0.1-0.5-0.2-0.8-0.3c-0.4-0.1-0.7-0.1-1-0.1
	s-0.6,0.1-0.9,0.3c-0.2,0.2-0.3,0.5-0.3,1c0.1,0.2,0.2,0.3,0.4,0.5c0.1,0.1,0.3,0.2,0.5,0.3c0.2,0.1,0.4,0.2,0.6,0.2
	c0.2,0.1,0.4,0.1,0.6,0.2c0.5,0.2,1,0.3,1.4,0.5c0.4,0.2,0.8,0.4,1.1,0.7c0.3,0.3,0.6,0.6,0.7,1c0.2,0.4,0.3,0.9,0.3,1.5
	c0,0.5-0.1,0.9-0.3,1.3c-0.2,0.4-0.5,0.8-0.8,1.2c-0.3,0.3-0.7,0.6-1.1,0.8c-0.4,0.2-0.8,0.3-1.2,0.3c-0.9,0-1.8-0.2-2.7-0.6
	C60.3,24.7,59.6,24.1,59.1,23.4L59.1,23.4z M77.6,22.1c0.3-0.1,0.5-0.1,0.7-0.1c0.2,0,0.4,0.1,0.6,0.2s0.3,0.2,0.4,0.4
	s0.1,0.3,0.1,0.5c0,0.2-0.1,0.4-0.2,0.5c-0.1,0.2-0.3,0.3-0.5,0.5c-0.7,0.4-1.4,0.8-2.2,1.1c-0.8,0.3-1.6,0.4-2.4,0.4
	c-0.5,0-1-0.1-1.5-0.2c-0.5-0.1-1-0.4-1.4-0.7c-0.7-0.5-1.2-1.2-1.6-2.1C69.2,21.8,69,21,69,20.1c0-0.9,0.2-1.7,0.5-2.5
	c0.3-0.8,0.9-1.5,1.6-2c0.6-0.4,1.2-0.8,1.9-1s1.4-0.4,2.1-0.4c0.4,0,0.8,0,1.2,0.1c0.4,0.1,0.7,0.2,1,0.4c0.3,0.2,0.6,0.5,0.8,0.8
	c0.2,0.3,0.4,0.6,0.5,1c0.1,0.4,0.2,0.7,0.2,1.1c0,0.2,0,0.5-0.1,0.7c0,0.2-0.1,0.4-0.3,0.6c-0.2,0.4-0.6,0.8-1,1.1
	c-0.4,0.3-0.9,0.6-1.4,0.8c-0.5,0.2-1,0.4-1.6,0.6c-0.5,0.2-1.1,0.3-1.5,0.4c-0.5,0.1-0.8,0.2-1,0.3c-0.1,0-0.2,0.1-0.3,0.1
	c0.2,0.5,0.6,0.9,1,1.2c0.4,0.3,1,0.4,1.6,0.4c0.5,0,1.1-0.2,1.6-0.5C76.6,22.7,77.1,22.4,77.6,22.1z M73.1,17
	c-0.5,0.3-0.9,0.7-1.2,1.2c-0.3,0.5-0.4,1-0.4,1.6c0.1,0,0.1,0,0.3-0.1s0.3-0.1,0.6-0.2c0.2-0.1,0.6-0.2,1.1-0.3
	c0.2-0.1,0.4-0.1,0.7-0.2c0.3-0.1,0.7-0.2,1-0.3c0.3-0.1,0.6-0.3,0.9-0.4c0.3-0.2,0.5-0.4,0.6-0.6c0-0.5-0.1-0.8-0.3-1
	c-0.2-0.2-0.5-0.3-0.9-0.3c-0.4,0-0.8,0.1-1.2,0.2C73.7,16.7,73.3,16.9,73.1,17z M91,24c0.1,0.3,0.1,0.5,0.1,0.7
	c-0.1,0.2-0.2,0.4-0.3,0.6c-0.2,0.1-0.4,0.2-0.7,0.3c-0.3,0-0.5,0-0.8-0.2c-0.1-0.1-0.3-0.3-0.4-0.4c-0.1-0.1-0.2-0.3-0.3-0.4
	c-0.6,0.5-1.1,0.7-1.7,0.9c-0.5,0.1-1.1,0.2-1.7,0.2c-0.4,0-0.9,0-1.3-0.1s-0.8-0.3-1.3-0.6c-0.6-0.5-1.1-1-1.3-1.6
	c-0.3-0.6-0.4-1.3-0.4-2c0-0.7,0.1-1.4,0.3-2c0.2-0.6,0.5-1.2,0.9-1.8c0.4-0.6,0.8-1.1,1.2-1.5c0.5-0.5,1-0.9,1.5-1.2
	c0.1-0.1,0.3-0.1,0.5-0.2c0.2-0.1,0.4-0.2,0.7-0.2c0.3-0.1,0.5-0.1,0.8-0.2c0.3,0,0.6-0.1,0.8-0.1c0.5,0,1,0.1,1.4,0.2
	c0.4,0.1,0.7,0.4,0.9,0.9c0,0.5,0,0.9,0,1.3s0,0.6,0,0.8c0,0.2,0,0.4,0,0.6c0,0.2,0,0.3,0,0.4c0,0.6,0,1.2,0,1.8
	c0,0.6,0.1,1.3,0.2,1.9c0,0.2,0.1,0.4,0.2,0.7c0.1,0.3,0.3,0.5,0.4,0.7h0c0.1,0.2,0.2,0.3,0.3,0.5C91,23.9,91,24,91,24z M87.7,22.2
	c-0.1-0.6-0.2-1.2-0.2-1.8c0-0.6,0-1.3,0-1.9c0-0.4,0-0.8,0-1.2c0-0.4,0-0.7,0-1c-0.3,0-0.6,0.1-0.9,0.2c-0.3,0.1-0.5,0.2-0.6,0.3
	c-0.4,0.2-0.8,0.5-1.2,0.9c-0.4,0.4-0.6,0.8-0.9,1.2c-0.2,0.5-0.4,0.9-0.5,1.4c-0.1,0.5-0.1,1,0,1.5c0,0.4,0.2,0.7,0.4,0.9
	c0.2,0.2,0.4,0.4,0.7,0.6c0.3,0.1,0.6,0.2,0.9,0.2c0.3,0,0.6-0.1,0.9-0.2C86.6,23.1,87.1,22.7,87.7,22.2z M93.1,16.5
	c-0.4-0.1-0.7-0.2-0.9-0.4c-0.2-0.2-0.3-0.4-0.3-0.7c0-0.3,0.1-0.5,0.3-0.8c0.2-0.2,0.6-0.4,1-0.4h1.1v-3.9c0.1-0.4,0.2-0.6,0.5-0.8
	c0.2-0.2,0.5-0.3,0.8-0.3c0.3,0,0.5,0.1,0.7,0.2c0.2,0.2,0.4,0.4,0.5,0.7v3.9h2.2c0.4,0.1,0.6,0.3,0.8,0.5c0.2,0.2,0.3,0.4,0.3,0.7
	c0,0.5-0.4,0.9-1.1,1.1h-2.1v4.7c0,0.5,0,1,0,1.6c0,0.5,0,1,0,1.6c0,0.4-0.1,0.7-0.4,0.9c-0.3,0.2-0.5,0.3-0.8,0.3
	c-0.3,0-0.5-0.1-0.8-0.3c-0.2-0.2-0.4-0.5-0.4-0.9c0-0.6,0-1.3,0-2c0-0.7,0-1.4,0-2v-3.9H93.1z"/>
</svg>
