<svg xmlns="http://www.w3.org/2000/svg" viewBox="0 0 100 15">
	<path style="fill:#F92864;" d="M8.1,0.4v9.9c0,0.4,0,0.8-0.1,1.2c0,0.4-0.1,0.7-0.2,0.9c-0.2,0.4-0.4,0.8-0.7,1.1s-0.6,0.6-1,0.8
		c-0.4,0.2-0.8,0.4-1.2,0.5C4.6,14.9,4.1,15,3.6,15c-1.5,0-2.7-0.7-3.6-2.1l2.4-2.5c0.1,0.4,0.2,0.8,0.4,1c0.2,0.3,0.5,0.4,0.8,0.4
		c0.7,0,1-0.5,1-1.6V0.4H8.1z"/>
	<path style="fill:#F92864;" d="M19.2,12.1h-5.1l-0.8,2.5H9.4l5.3-14.2h3.9l5.3,14.2H20L19.2,12.1z M18.3,9.3l-1.6-4.7L15,9.3H18.3z
		"/>
	<path style="fill:#F92864;" d="M26.9,0.4L30.2,9l3.4-8.6h3.9l-5.8,14.2h-2.9L22.9,0.4H26.9z"/>
	<path style="fill:#F92864;" d="M46.3,12.1h-5.1l-0.8,2.5h-3.8l5.3-14.2h3.9L51,14.6h-3.8L46.3,12.1z M45.4,9.3l-1.6-4.7l-1.6,4.7
		H45.4z"/>
	<path style="fill:#F92864;" d="M60.2,4c-0.4-0.3-0.8-0.6-1.2-0.7c-0.4-0.2-0.8-0.2-1.1-0.2c-0.5,0-0.8,0.1-1.1,0.3
		c-0.3,0.2-0.4,0.5-0.4,0.9c0,0.3,0.1,0.5,0.2,0.6c0.1,0.2,0.3,0.3,0.6,0.4c0.2,0.1,0.5,0.2,0.8,0.3c0.3,0.1,0.6,0.2,0.9,0.3
		c1.2,0.4,2,0.9,2.6,1.6c0.5,0.7,0.8,1.5,0.8,2.6c0,0.7-0.1,1.4-0.4,2c-0.2,0.6-0.6,1.1-1,1.5c-0.5,0.4-1,0.7-1.7,1
		c-0.7,0.2-1.4,0.3-2.3,0.3c-1.8,0-3.4-0.5-4.9-1.6l1.5-3c0.5,0.5,1.1,0.9,1.6,1.1c0.5,0.2,1,0.4,1.6,0.4c0.6,0,1-0.1,1.3-0.4
		c0.3-0.3,0.4-0.6,0.4-0.9c0-0.2,0-0.4-0.1-0.6c-0.1-0.2-0.2-0.3-0.4-0.4c-0.2-0.1-0.4-0.3-0.7-0.4c-0.3-0.1-0.6-0.2-1-0.4
		c-0.5-0.2-0.9-0.3-1.4-0.5c-0.4-0.2-0.8-0.4-1.2-0.7c-0.3-0.3-0.6-0.7-0.8-1.1c-0.2-0.5-0.3-1-0.3-1.7c0-0.7,0.1-1.3,0.3-1.9
		c0.2-0.6,0.5-1.1,1-1.5c0.4-0.4,0.9-0.7,1.5-1c0.6-0.2,1.3-0.3,2-0.3c0.7,0,1.4,0.1,2.2,0.3c0.7,0.2,1.5,0.5,2.2,0.9L60.2,4z"/>
	<path style="fill:#F92864;" d="M69.8,3.5v11.1h-3.6V3.5h-3V0.4h9.5v3.1H69.8z"/>
	<path style="fill:#F92864;" d="M82.2,12.1h-5.1l-0.8,2.5h-3.8l5.3-14.2h3.9l5.3,14.2H83L82.2,12.1z M81.3,9.3l-1.6-4.7L78,9.3H81.3
		z"/>
	<path style="fill:#F92864;" d="M100,14.6h-4.5l-3.4-5.5v5.5h-3.6V0.4h5.6c0.8,0,1.4,0.1,2,0.3c0.6,0.2,1.1,0.6,1.4,1
		c0.4,0.4,0.7,0.9,0.8,1.4c0.2,0.5,0.3,1.1,0.3,1.7c0,1.1-0.3,2-0.8,2.6s-1.3,1.1-2.3,1.4L100,14.6z M92.1,6.7h0.7
		c0.7,0,1.3-0.2,1.6-0.5C94.8,6,95,5.6,95,5s-0.2-1-0.6-1.3c-0.4-0.3-0.9-0.5-1.6-0.5h-0.7V6.7z"/>
</svg>
