<svg xmlns="http://www.w3.org/2000/svg" viewBox="0 0 100 34">
<path style="fill:#507DCC;" d="M12.9,15.1l-1.4,1.2c-0.4-0.6-0.7-1.3-0.9-2c-0.2-0.7-0.3-1.5-0.3-2.4c0-2.3,0.6-4.7,1.8-7.2
	c0.5-1.1,1.1-1.9,1.8-2.5c0.7-0.6,1.3-0.9,1.9-0.9c0.8,0,1.4,0.5,1.8,1.4c0.4,1,0.6,2.4,0.6,4.2c0,1.7-0.2,3.5-0.6,5.7
	s-1,4.1-1.7,6.1c0.7-0.1,1.3-0.1,1.7-0.1c0.1,0,0.2,0,0.3,0l-0.1,0.6c-0.7,0-1.4,0.1-2.1,0.2c-1.1,2.7-2.3,5.2-3.8,7.5
	s-3,4.1-4.6,5.4c-1.6,1.3-3,1.9-4.3,1.9c-0.9,0-1.6-0.3-2.2-0.8C0.3,32.6,0,31.9,0,30.9c0-0.7,0.2-1.6,0.6-2.4
	c0.4-0.9,0.9-1.8,1.6-2.6c0.7-0.9,1.5-1.7,2.5-2.4c0.8-0.7,1.7-1.3,2.7-1.9c0.9-0.5,1.9-1,3-1.4c1.1-0.4,2.2-0.8,3.4-1.1l0.1-0.4
	c1.1-3.4,1.9-6.3,2.3-9c0.3-1.8,0.4-3.3,0.4-4.5c0-0.9-0.1-1.7-0.3-2.2c-0.2-0.5-0.5-0.8-0.9-0.8c-0.6,0-1.1,0.4-1.7,1.2
	c-0.6,0.8-1,1.9-1.4,3.1c-0.4,1.3-0.5,2.5-0.5,3.7C11.6,12.2,12.1,13.8,12.9,15.1z M13.4,19.7c-1.6,0.4-3.1,0.9-4.5,1.7
	c-1.4,0.7-2.7,1.6-3.7,2.5C4,25,3,26.2,2.3,27.5c-0.7,1.3-1,2.5-1,3.6c0,0.7,0.2,1.3,0.5,1.7c0.4,0.4,0.8,0.7,1.4,0.7
	c1.7,0,3.6-1.5,5.7-4.4c0.5-0.7,1-1.5,1.6-2.6c0.5-1,1.2-2.3,1.9-3.9C12.7,21.6,13.1,20.7,13.4,19.7z M22.1,16.3L20.2,24
	C20,24.7,20,25.3,20,25.8c0,0.5,0.1,0.8,0.4,1.1c0.3,0.3,0.7,0.4,1.1,0.4c1.1,0,2.3-0.9,3.5-2.8l0.1-0.1c0-0.1,0-0.2,0.1-0.3
	l1.2-6.9l1.9-0.8l-1.7,6.5c-0.3,1.1-0.4,1.9-0.4,2.6c0,0.4,0.1,0.8,0.2,1c0.1,0.3,0.3,0.4,0.6,0.4c0.4,0,1.1-0.5,1.9-1.5l0.3,0.3
	l-0.2,0.2c-0.7,0.9-1.3,1.5-1.6,1.8c-0.4,0.3-0.7,0.5-1,0.5c-0.4,0-0.7-0.2-1-0.6c-0.3-0.4-0.4-0.9-0.4-1.6c0-0.2,0-0.4,0-0.6
	c-1.4,1.8-2.7,2.7-4,2.7c-0.7,0-1.2-0.2-1.6-0.6c-0.4-0.4-0.6-0.9-0.6-1.6c0-0.5,0.1-1.1,0.2-1.8l1.3-7L22.1,16.3z M29.1,26.7
	l1.1-1.3c0.6,1.4,1.5,2.1,2.7,2.1c0.7,0,1.2-0.2,1.7-0.6c0.5-0.4,0.7-0.9,0.7-1.5c0-0.4-0.1-0.8-0.3-1.1c-0.2-0.3-0.8-0.8-1.6-1.5
	c-0.8-0.6-1.3-1.1-1.6-1.5c-0.3-0.4-0.4-0.8-0.4-1.3c0-0.6,0.2-1.2,0.5-1.7c0.4-0.5,0.8-1,1.4-1.3c0.6-0.3,1.2-0.5,1.9-0.5
	c0.6,0,1.1,0.1,1.5,0.4c0.4,0.3,0.6,0.7,0.6,1.1c0,0.6-0.3,1-0.8,1.2c-0.1-0.6-0.3-1.1-0.7-1.5c-0.4-0.4-0.9-0.5-1.5-0.5
	c-0.5,0-1,0.2-1.4,0.5c-0.4,0.4-0.6,0.8-0.6,1.2c0,0.6,0.3,1.1,1,1.6l1.1,0.9c1.1,0.9,1.7,1.8,1.7,2.7c0,0.7-0.2,1.3-0.6,1.9
	c-0.4,0.6-0.9,1.1-1.6,1.4c-0.7,0.4-1.4,0.5-2.1,0.5C30.9,28.3,29.9,27.8,29.1,26.7z M42.5,17.4L41,24c-0.2,0.7-0.2,1.2-0.2,1.5
	c0,0.5,0.1,0.9,0.3,1.2c0.2,0.3,0.5,0.4,0.9,0.4c0.4,0,0.7-0.1,1-0.3c0.3-0.2,0.7-0.6,1.3-1.3l0.2-0.2l0.3,0.3c-0.8,1-1.4,1.6-1.9,2
	c-0.5,0.4-1,0.6-1.5,0.6c-0.6,0-1.1-0.2-1.5-0.6c-0.4-0.4-0.6-1-0.6-1.6c0-0.5,0.1-1.2,0.3-2.2l1.3-6.4H39l0.1-0.7H41l1.1-5.4
	l1.9-0.8l-1.4,6.1h3.2l-0.1,0.7H42.5z"/>
<path style="fill:#565656;" d="M69.3,27.9h-1.9l4.1-20l0.1-0.7c0.1-0.5,0.1-0.8,0.1-1c0-0.3-0.1-0.5-0.2-0.6s-0.3-0.2-0.5-0.2
	c-0.4,0-0.8,0.2-1.2,0.7c-0.5,0.4-1,1.2-1.7,2.3c-1.1,1.6-2.2,3.9-3.5,6.7c-1,2.3-1.8,4.5-2.5,6.6c-0.7,2.1-1.3,4.2-1.7,6.3h-1.6
	l4.5-21.5c0.1-0.7,0.2-1.2,0.2-1.6c0-0.2,0-0.3-0.1-0.5C63.3,4.2,63.2,4,63.1,4s-0.2-0.1-0.4-0.1c-0.6,0-1.4,0.6-2.3,1.8
	c-0.9,1.2-1.9,3.1-3.2,5.6c-0.6,1.2-1.1,2.4-1.7,3.6c-0.5,1.3-1,2.4-1.4,3.5c-0.4,1.1-0.9,2.4-1.4,4c-0.8,2.3-1.3,4.1-1.6,5.6h-1.6
	l0.1-0.3l0.8-3.4c0.3-1.3,0.6-2.4,0.8-3.5c1-4.7,1.8-8.6,2.3-11.6c0.4-2.4,0.6-4.1,0.6-5.1c0-0.8-0.1-1.4-0.3-1.8
	c-0.2-0.4-0.5-0.6-1-0.6c-1,0-1.9,1.3-2.6,4c-0.5,1.7-0.9,3.5-1.1,5.4l-1.5-1c0.2-1.7,0.6-3.2,1.1-4.6c0.5-1.4,1.1-2.5,1.8-3.3
	c0.7-0.8,1.4-1.2,2.2-1.2c0.8,0,1.5,0.4,2,1.3s0.7,2.1,0.7,3.7c0,1.3-0.1,2.8-0.4,4.5c-0.1,0.5-0.3,1.7-0.6,3.7l-0.8,4.3l0.1-0.4
	c0.9-2.6,2.3-5.6,4.1-9.2c1.1-2.2,2.2-3.8,3.1-4.9c1-1.1,1.8-1.7,2.6-1.7c0.5,0,0.9,0.2,1.2,0.6c0.3,0.4,0.5,0.9,0.5,1.5
	c0,0.6-0.1,1.5-0.4,2.7l-2.3,11c0.2-0.5,0.6-1.4,1.2-2.8c1.8-4,3.3-6.9,4.6-8.7s2.4-2.7,3.5-2.7c0.5,0,1,0.2,1.3,0.6
	c0.3,0.4,0.5,0.9,0.5,1.5c0,0.5-0.1,1.3-0.3,2.3L69.3,27.9z M84.9,16.2L83,23.5c-0.2,0.8-0.3,1.4-0.3,1.9c0,0.4,0.1,0.7,0.3,1
	s0.4,0.4,0.6,0.4c0.4,0,1-0.5,1.9-1.4l0.3,0.3l-0.2,0.3c-0.7,0.8-1.2,1.4-1.6,1.7c-0.4,0.3-0.7,0.5-1,0.5c-0.4,0-0.8-0.2-1.1-0.7
	c-0.3-0.4-0.5-1-0.5-1.5c0-0.4,0.2-1.4,0.5-2.9l0.2-0.8c-0.5,1.1-1.1,2.2-1.9,3.3c-1.4,1.7-2.7,2.6-3.9,2.6c-0.7,0-1.3-0.3-1.8-0.8
	c-0.4-0.5-0.6-1.3-0.6-2.2c0-1.2,0.3-2.5,1-3.9c0.7-1.4,1.6-2.5,2.6-3.4c1-0.9,2-1.3,3-1.3c1,0,1.8,0.4,2.3,1.2L83,17L84.9,16.2z
	 M82.6,18.8c-0.2-0.5-0.4-0.9-0.8-1.2c-0.4-0.3-0.8-0.4-1.3-0.4c-0.6,0-1.2,0.3-1.8,0.8c-0.6,0.5-1.2,1.3-1.8,2.2
	c-0.4,0.8-0.8,1.6-1,2.5c-0.3,0.9-0.4,1.7-0.4,2.3c0,0.7,0.1,1.2,0.4,1.6c0.3,0.4,0.6,0.6,1.1,0.6c0.6,0,1.2-0.3,1.9-0.9
	c0.7-0.6,1.3-1.4,1.9-2.4c0.4-0.6,0.7-1.2,0.9-1.8c0.2-0.6,0.5-1.5,0.7-2.5L82.6,18.8z M90.8,16.3l-1.7,6.5
	c-0.3,1.1-0.4,1.9-0.4,2.6c0,0.4,0.1,0.8,0.2,1c0.1,0.3,0.3,0.4,0.6,0.4c0.4,0,1.1-0.5,1.9-1.5l0.3,0.3l-0.2,0.2
	c-0.7,0.9-1.3,1.5-1.6,1.8c-0.4,0.3-0.7,0.5-1,0.5c-0.4,0-0.7-0.2-1-0.6c-0.3-0.4-0.4-0.9-0.4-1.6c0-0.4,0.1-1,0.2-1.9l1.2-6.9
	L90.8,16.3z M91.4,8.6c0.3,0,0.6,0.1,0.8,0.3s0.3,0.5,0.3,0.8c0,0.3-0.1,0.6-0.3,0.8c-0.2,0.2-0.5,0.3-0.8,0.3
	c-0.3,0-0.6-0.1-0.8-0.4c-0.2-0.2-0.4-0.5-0.4-0.8c0-0.3,0.1-0.6,0.3-0.8C90.8,8.7,91,8.6,91.4,8.6z M100,0l-5.2,22.9l-0.2,0.8
	c-0.2,0.7-0.3,1.3-0.3,1.8c0,0.4,0.1,0.7,0.2,1c0.2,0.3,0.3,0.4,0.6,0.4c0.4,0,1.1-0.5,1.9-1.5l0.3,0.3l-0.2,0.2
	c-0.7,0.9-1.3,1.5-1.6,1.8c-0.4,0.3-0.7,0.5-1,0.5c-0.4,0-0.7-0.2-1-0.7c-0.3-0.4-0.4-0.9-0.4-1.5c0-0.4,0.1-1,0.3-1.9L97.9,1L100,0
	z"/>
</svg>
