<svg xmlns="http://www.w3.org/2000/svg" viewBox="0 0 100 24">
<path style="fill:#43BB8C;" d="M16.4,9.3H8.9V0L0,14.7h7.5V24L16.4,9.3z M2.5,13.3l5-8.3v5.7H14l-5,8.3v-5.7H2.5z M23.3,8.2v7.8
	h-1.1V8.2H23.3z M27.2,9.3v6.7h-1.1V9.3h-1.7V8.2H29v1.1H27.2z M38.7,8.6V10c-0.7-0.6-1.3-0.8-2.1-0.8c-0.8,0-1.4,0.3-2,0.9
	c-0.5,0.6-0.8,1.3-0.8,2.1c0,0.8,0.3,1.5,0.8,2.1s1.2,0.8,2,0.8c0.4,0,0.7-0.1,1-0.2c0.2-0.1,0.3-0.2,0.5-0.3s0.3-0.3,0.5-0.4v1.4
	c-0.7,0.4-1.3,0.6-2.1,0.6c-1.1,0-2-0.4-2.8-1.2c-0.8-0.8-1.1-1.7-1.1-2.8c0-1,0.3-1.9,1-2.6C34.5,8.5,35.5,8,36.7,8
	C37.4,8,38.1,8.2,38.7,8.6z M39.7,12c0-1.1,0.4-2,1.2-2.8C41.7,8.4,42.6,8,43.7,8c1.1,0,2,0.4,2.8,1.2c0.8,0.8,1.2,1.7,1.2,2.8
	c0,1.1-0.4,2.1-1.2,2.8c-0.8,0.8-1.7,1.2-2.8,1.2c-1,0-1.9-0.3-2.6-1C40.2,14.2,39.7,13.2,39.7,12z M40.9,12c0,0.9,0.3,1.6,0.8,2.1
	c0.6,0.6,1.2,0.8,1.9,0.8c0.8,0,1.5-0.3,2-0.8c0.5-0.6,0.8-1.3,0.8-2.1c0-0.8-0.3-1.5-0.8-2.1c-0.5-0.6-1.2-0.8-2-0.8
	c-0.8,0-1.5,0.3-2,0.8C41.2,10.5,40.9,11.2,40.9,12z M49.1,15.9V7.6l5.5,5.9V8.2h1.1v8.2l-5.5-5.9v5.4H49.1z M61.4,9.3h-2.6v1.9h2.6
	v1.1h-2.6v3.7h-1.1V8.2h3.8V9.3z M66.9,9.3h-3v1.9h3v1.1h-3v2.6h3v1.1h-4.2V8.2h4.2V9.3z M71,12.6l2.4,3.3h-1.4l-2.2-3.2h-0.2v3.2
	h-1.1V8.2h1.3c1,0,1.7,0.2,2.2,0.6c0.5,0.4,0.7,1,0.7,1.7c0,0.5-0.2,1-0.5,1.4C71.9,12.2,71.5,12.5,71,12.6z M69.6,11.7h0.4
	c1.1,0,1.6-0.4,1.6-1.3c0-0.8-0.5-1.2-1.6-1.2h-0.4V11.7z M78.7,9.3h-3v1.9h3v1.1h-3v2.6h3v1.1h-4.2V8.2h4.2V9.3z M80.2,15.9V7.6
	l5.5,5.9V8.2h1.1v8.2l-5.5-5.9v5.4H80.2z M94.4,8.6V10c-0.7-0.6-1.3-0.8-2.1-0.8c-0.8,0-1.4,0.3-2,0.9c-0.5,0.6-0.8,1.3-0.8,2.1
	c0,0.8,0.3,1.5,0.8,2.1s1.2,0.8,2,0.8c0.4,0,0.7-0.1,1-0.2c0.2-0.1,0.3-0.2,0.5-0.3c0.2-0.1,0.3-0.3,0.5-0.4v1.4
	C93.7,15.9,93,16,92.3,16c-1.1,0-2-0.4-2.8-1.2c-0.8-0.8-1.1-1.7-1.1-2.8c0-1,0.3-1.9,1-2.6C90.1,8.5,91.1,8,92.4,8
	C93.1,8,93.7,8.2,94.4,8.6z M100,9.3h-3v1.9h3v1.1h-3v2.6h3v1.1h-4.2V8.2h4.2V9.3z"/>
</svg>
