<svg xmlns="http://www.w3.org/2000/svg" viewBox="0 0 100 26">
<path style="fill:#898200;" d="M14.3,1l1,6.1h-0.6c-0.3-1.1-0.6-2-0.9-2.6s-0.6-1.2-1-1.6c-0.6-0.7-1.3-1.2-2.2-1.6
	C9.7,0.9,8.8,0.7,7.9,0.7c-1.3,0-2.4,0.4-3.2,1.1S3.5,3.5,3.5,4.6c0,1.3,0.5,2.3,1.6,3.1c0.6,0.4,1.1,0.8,1.8,1.1s1.6,0.8,3,1.4
	c0.9,0.4,1.7,0.7,2.3,1c0.6,0.3,1.2,0.6,1.5,0.8c0.4,0.2,0.8,0.5,1.2,0.8c1.6,1.4,2.5,3.2,2.5,5.4c0,1.5-0.4,2.8-1.2,3.9
	c-0.8,1.2-1.8,2.1-3.2,2.8s-2.9,1-4.5,1c-1.1,0-2.5-0.2-4-0.5c-0.9-0.2-2-0.6-3.5-1.2l-0.5-0.2L0,17.2h0.5c0.5,1.9,1.4,3.5,2.5,5
	C4.6,24.1,6.4,25,8.5,25c1.1,0,2-0.2,2.9-0.6c0.8-0.4,1.5-1,2-1.7c0.5-0.7,0.7-1.6,0.7-2.5c0-0.8-0.2-1.6-0.5-2.3
	c-0.4-0.7-1-1.3-1.8-1.9c-0.8-0.6-2-1.2-3.4-1.9c-2.1-0.9-3.4-1.5-3.8-1.8c-0.9-0.5-1.6-1-2.1-1.6s-1-1.2-1.3-1.9S0.7,7.3,0.7,6.5
	c0-1.2,0.3-2.3,0.9-3.3s1.5-1.8,2.6-2.4S6.4,0,7.7,0c0.8,0,1.7,0.1,2.8,0.4l1.1,0.3C12.3,0.9,13.2,1,14.1,1H14.3z M1.1,23.2
	c0.8,0.5,1.8,0.9,3,1.3c-0.8-0.7-1.4-1.3-1.8-1.8c-0.4-0.5-0.9-1.1-1.4-2L1.1,23.2z M12.9,23.9c1.9-1.5,2.9-3.2,2.9-5.2
	c0-0.8-0.2-1.6-0.5-2.4c-0.3-0.8-0.8-1.4-1.4-2c-0.9-0.8-2.4-1.7-4.6-2.7c-1.8-0.8-3-1.3-3.6-1.6C5.2,9.8,4.7,9.5,4.1,9
	C2.9,8,2.3,6.8,2.3,5.3c0-0.4,0-0.8,0.1-1.2s0.2-0.7,0.4-1c0.2-0.3,0.5-0.8,0.9-1.3C2.1,2.9,1.3,4.5,1.3,6.4c0,1.8,0.7,3.2,2.1,4.3
	c0.7,0.6,1.5,1.1,2.5,1.5c0.1,0.1,1,0.5,2.7,1.2c2.1,0.9,3.5,1.7,4.3,2.5c1.2,1.2,1.9,2.6,1.9,4.2c0,0.8-0.1,1.5-0.4,2.1
	S13.5,23.4,12.9,23.9z M19,18c0-1.4,0.4-2.7,1.1-3.9c0.7-1.2,1.7-2.2,3-2.9c1.3-0.7,2.6-1.1,4.1-1.1c1.1,0,2.2,0.2,3.2,0.6
	c1,0.4,1.9,1,2.6,1.7c0.8,0.7,1.3,1.6,1.8,2.5s0.6,2,0.6,3.1c0,1.4-0.4,2.7-1.1,3.9s-1.7,2.2-3,2.9c-1.3,0.7-2.6,1.1-4.1,1.1
	c-1.5,0-2.9-0.3-4.1-1c-1.3-0.7-2.3-1.7-3-2.9C19.4,20.7,19,19.4,19,18z M24.2,24.8c-0.6-0.5-1-0.8-1.2-1s-0.4-0.5-0.7-0.9
	c-0.8-1.3-1.1-2.9-1.1-4.9c0-3.3,1.1-5.7,3.3-7c-1,0.4-1.9,0.9-2.6,1.6c-0.7,0.7-1.3,1.5-1.7,2.5s-0.6,1.9-0.6,2.9
	c0,1,0.2,2,0.6,2.9c0.4,0.9,1,1.7,1.7,2.4c0.4,0.3,0.7,0.6,0.9,0.7C23.1,24.2,23.5,24.4,24.2,24.8z M22.9,17.9c0,1.1,0.1,2,0.3,2.9
	s0.5,1.7,0.9,2.3c0.4,0.6,0.9,1.1,1.4,1.5c0.5,0.3,1.1,0.5,1.8,0.5c0.6,0,1.2-0.2,1.8-0.5c0.5-0.3,1-0.8,1.4-1.4
	c0.4-0.6,0.7-1.4,0.9-2.3s0.3-1.9,0.3-2.9c0-1.4-0.2-2.7-0.5-3.7s-0.9-1.9-1.5-2.5c-0.7-0.6-1.4-0.9-2.3-0.9c-1.3,0-2.4,0.7-3.2,2
	C23.3,14,22.9,15.7,22.9,17.9z M29,25.1c1.6-0.7,2.7-1.7,3.6-2.9c0.8-1.2,1.2-2.6,1.2-4.2c0-1.6-0.4-3.1-1.2-4.3s-1.9-2.2-3.2-2.7
	c1.8,1.4,2.7,3.7,2.7,7c0,1.7-0.2,3-0.7,4.2c-0.5,1.1-1.2,2-2.2,2.8L29,25.1z M50.5,21.8l0.4,0.5c-0.8,0.9-1.5,1.6-2.2,2.1
	c-0.7,0.5-1.3,0.9-2,1.1c-0.7,0.2-1.4,0.3-2.3,0.3c-1.4,0-2.6-0.3-3.7-0.9c-1.1-0.6-1.9-1.5-2.6-2.6s-0.9-2.4-0.9-3.8
	c0-1.1,0.2-2.2,0.6-3.3s1-2,1.7-2.7s1.6-1.4,2.6-1.8s2-0.7,3.1-0.7c1,0,1.9,0.2,2.8,0.6c0.9,0.4,1.6,0.9,2.1,1.5
	c0.5,0.6,0.8,1.4,0.8,2.1c0,0.5-0.1,0.9-0.4,1.3s-0.7,0.5-1.1,0.5c-0.6,0-1.1-0.3-1.4-1c-0.1-0.3-0.3-0.8-0.3-1.7
	c-0.1-0.8-0.2-1.4-0.5-1.8c-0.2-0.3-0.5-0.6-0.8-0.8c-0.4-0.2-0.8-0.3-1.2-0.3c-0.8,0-1.5,0.3-2.2,0.9c-0.6,0.6-1.1,1.4-1.4,2.5
	c-0.3,1.1-0.5,2.3-0.5,3.7c0,1.4,0.2,2.6,0.6,3.7s0.9,1.9,1.6,2.5s1.5,0.9,2.5,0.9c0.5,0,1-0.1,1.5-0.3c0.5-0.2,1-0.5,1.6-1
	C49.4,23,49.9,22.5,50.5,21.8z M44.4,25.4c-3.2-0.9-4.8-3.3-4.8-7.4c0-1.5,0.2-2.8,0.6-3.8c0.4-1,1.2-2,2.3-3
	c-3,1.6-4.6,4.1-4.6,7.4c0,1.3,0.3,2.5,0.8,3.5c0.6,1,1.3,1.9,2.3,2.5S43.1,25.4,44.4,25.4z M47.4,11.1c0.3,0.5,0.6,0.9,0.7,1.2
	c0.1,0.3,0.2,0.8,0.3,1.6c0.1,0.6,0.2,1.1,0.3,1.3s0.3,0.3,0.5,0.3c0.4,0,0.6-0.3,0.6-0.9C49.8,13.4,49,12.2,47.4,11.1z M52.5,25.5
	V25c0.8-0.1,1.4-0.4,1.6-0.9s0.4-1.1,0.4-2.2v-7.7c0-1-0.2-1.8-0.5-2.2c-0.3-0.4-0.8-0.7-1.6-0.8v-0.4l5.7-0.7V22
	c0,1,0.1,1.7,0.4,2.2c0.3,0.4,0.8,0.7,1.6,0.9v0.5H52.5z M54.3,24.7h3.5l-0.4-0.3c0,0,0,0-0.1-0.1l-0.2-0.2
	c-0.2-0.2-0.3-0.4-0.3-0.7v-0.4v-0.2V10.9L54,11.3l0.7,0.5c0,0,0,0,0.1,0.1L55,12c0.1,0.1,0.2,0.2,0.2,0.4c0,0.2,0.1,0.5,0.1,0.9
	v9.6c0,0.5,0,0.8-0.1,0.9c0,0.1-0.2,0.3-0.4,0.5c0,0-0.1,0-0.1,0.1L54.3,24.7z M54.2,5.2c0-0.6,0.2-1.1,0.6-1.6S55.7,3,56.3,3
	s1.1,0.2,1.5,0.6s0.6,0.9,0.6,1.6c0,0.6-0.2,1.1-0.6,1.6c-0.4,0.4-0.9,0.6-1.5,0.6s-1.1-0.2-1.5-0.6C54.4,6.3,54.2,5.8,54.2,5.2z
	 M56.2,3.5c-0.4,0-0.8,0.2-1.1,0.5c-0.3,0.3-0.5,0.7-0.5,1.2s0.2,0.8,0.5,1.2s0.7,0.5,1.1,0.5c0.3,0,0.4-0.1,0.4-0.4
	c0-0.2,0-0.7,0-1.3c0-0.6,0-1.1,0-1.2C56.6,3.6,56.4,3.5,56.2,3.5z M70.9,23.8c-1.5,1.3-3,1.9-4.7,1.9c-1.3,0-2.4-0.4-3.2-1.1
	c-0.8-0.7-1.2-1.7-1.2-2.8c0-1.6,0.8-2.9,2.3-3.9c1.6-0.9,3.8-1.5,6.7-1.6v-0.5v-0.3c0-1,0-1.7-0.1-2.3c-0.1-0.6-0.2-1.1-0.4-1.4
	c-0.2-0.4-0.4-0.6-0.8-0.9c-0.3-0.2-0.7-0.3-1.1-0.3c-0.6,0-1,0.2-1.3,0.6c-0.3,0.4-0.5,0.9-0.6,1.7c-0.1,0.8-0.2,1.3-0.5,1.6
	S65.7,15,65.2,15c-0.4,0-0.7-0.1-1-0.4c-0.3-0.3-0.4-0.7-0.4-1.1c0-0.6,0.2-1.2,0.7-1.7c0.4-0.5,1-0.9,1.8-1.2
	c0.8-0.3,1.6-0.4,2.5-0.4c1.2,0,2.2,0.2,3.1,0.7c0.9,0.5,1.6,1.2,2,2.1c0.2,0.5,0.4,1,0.5,1.5c0.1,0.6,0.2,1.3,0.2,2.3V22
	c0,1,0.1,1.7,0.4,2.2c0.3,0.4,0.8,0.7,1.6,0.9v0.5h-5.7V23.8z M67,25.2c-2-0.4-3-1.6-3-3.4c0-1.2,0.5-2.2,1.4-3.1
	c0.4-0.4,1.2-0.9,2.4-1.4c-1.4,0.3-2.5,0.7-3.3,1.2c-1.3,0.9-2,2-2,3.4c0,1,0.4,1.8,1.1,2.5s1.6,0.9,2.8,0.9
	C66.6,25.2,66.8,25.2,67,25.2z M67,10.7c-0.8,0.2-1.5,0.6-2,1.1c-0.5,0.5-0.8,1-0.8,1.7c0,0.2,0.1,0.4,0.2,0.5
	c0.1,0.1,0.2,0.2,0.4,0.2c0.2,0,0.3-0.1,0.4-0.2c0.1-0.1,0.2-0.3,0.2-0.6c0.1-0.7,0.3-1.2,0.5-1.5S66.5,11.1,67,10.7z M70.9,23v-6.1
	c-1.1,0.2-2.1,0.5-2.9,0.9c-0.8,0.4-1.4,1-1.9,1.6c-0.4,0.7-0.7,1.4-0.7,2.2c0,0.8,0.2,1.5,0.7,2s1.1,0.8,1.8,0.8
	C68.8,24.4,69.8,24,70.9,23z M71.5,24.7h2.6l-0.4-0.3c0,0-0.1-0.1-0.1-0.1l-0.2-0.2c-0.2-0.2-0.3-0.4-0.3-0.7v-0.4l0-0.2v-6.2
	c0-1.7-0.2-3-0.6-3.8c-0.5-1.1-1.4-1.8-2.5-2.2c0.8,0.5,1.2,1.4,1.3,2.6c0.1,0.7,0.1,1.9,0.1,3.4V24.7z M89.7,0.5V1
	c-1.4,0.2-2.4,0.7-3.1,1.5c-0.3,0.4-0.5,0.8-0.6,1.3c-0.1,0.5-0.2,1.3-0.2,2.2v14c0,0.9,0.1,1.6,0.2,2.2c0.1,0.5,0.3,1,0.5,1.3
	c0.5,0.7,1.5,1,3,1h0.4c0.8,0,1.6-0.1,2.3-0.4c0.8-0.3,1.5-0.7,2.3-1.2c0.8-0.6,1.6-1.3,2.4-2.1c0.8-0.8,1.6-1.8,2.5-3h0.5l-2.1,7.6
	H78.3v-0.6c1.3-0.2,2.2-0.7,2.8-1.5c0.4-0.6,0.7-1.8,0.7-3.5V6.1c0-1.1-0.1-1.9-0.2-2.4c-0.1-0.5-0.3-0.9-0.7-1.3
	c-0.6-0.7-1.5-1.1-2.6-1.3V0.5H89.7z M80.8,24.6h5.2L85.2,24c-0.4-0.3-0.7-0.5-0.8-0.7c-0.1-0.2-0.2-0.5-0.2-0.8c0-0.2,0-0.3,0-0.4
	c0-0.1,0-0.1,0-0.2v-0.3V4.4V4.1c0-0.1,0-0.1,0-0.2s0-0.2,0-0.4c0-0.4,0.1-0.7,0.2-0.9c0.1-0.2,0.4-0.4,0.8-0.7l1-0.8h-5.8l1,0.8
	c0.4,0.3,0.7,0.5,0.8,0.7c0.1,0.2,0.2,0.5,0.2,0.8c0,0.2,0,0.4,0,0.6v0.3v17.1v0.3c0,0.2,0,0.4,0,0.6c0,0.4-0.1,0.7-0.2,0.8
	c-0.1,0.2-0.4,0.4-0.8,0.7L80.8,24.6z M96.6,24.6l1-3.4c-1.2,1.4-2.5,2.6-4.1,3.4H96.6z"/>
</svg>
