<svg xmlns="http://www.w3.org/2000/svg" viewBox="0 0 100 68">
<path style="fill:#2D2D2D;" d="M25.1,47.6c0,1.1-0.3,2-1,2.8c-0.7,0.8-1.5,1.1-2.4,1.1c-1,0-1.9-0.4-2.5-1.1c-0.7-0.8-1-1.7-1-2.8
	c0-1.1,0.3-2.1,1-2.8c0.7-0.7,1.5-1.1,2.5-1.1c1,0,1.8,0.4,2.4,1.1C24.8,45.5,25.1,46.5,25.1,47.6z M23.9,47.7
	c0-1.3-0.3-2.4-0.8-3.1c-0.3-0.5-0.8-0.7-1.4-0.7c-0.6,0-1,0.2-1.4,0.5c-0.6,0.7-0.9,1.7-0.9,3.2c0,1.2,0.2,2.1,0.6,2.8
	c0.4,0.7,1,1,1.7,1c0.7,0,1.2-0.3,1.6-0.9C23.7,49.7,23.9,48.8,23.9,47.7z M31.6,45.6c0,0.1,0,0.2-0.1,0.2s-0.1-0.1-0.2-0.3
	c-0.1-0.5-0.3-0.9-0.5-1.2c-0.2-0.2-0.4-0.3-0.8-0.3c-0.1,0-0.4,0-0.9,0c-0.3,0-0.7,0-1.2,0v3.2c0.9,0,1.5-0.1,1.7-0.2
	c0.2-0.1,0.4-0.5,0.4-1.1c0-0.2,0.1-0.3,0.1-0.3s0.1,0.1,0.1,0.2c0,0.1,0,0.1,0,0.2c0,0.5,0,1,0,1.4c0,0.6,0,1,0,1.3
	c0,0,0,0.1,0,0.1c0,0.1,0,0.1-0.1,0.1C30.1,49,30,49,30,49c0,0,0-0.2-0.1-0.5c-0.1-0.4-0.2-0.7-0.3-0.8c-0.2-0.1-0.5-0.2-1-0.2
	c-0.3,0-0.5,0-0.7,0v1.1v2.2c0,0.2,0.1,0.3,0.2,0.4c0.1,0,0.3,0,0.5,0c0.1,0,0.2,0,0.2,0.1c0,0.1-0.1,0.1-0.2,0.1h-0.1
	c-0.1,0-0.2,0-0.4,0c-0.2,0-0.3,0-0.3,0h-1.6c-0.1,0-0.2,0-0.2-0.1c0-0.1,0.1-0.1,0.4-0.1c0.3,0,0.4,0,0.4-0.1
	c0-0.1,0.1-0.2,0.1-0.5v-6.3c0-0.1,0-0.2-0.1-0.2c-0.1,0-0.3-0.1-0.6-0.1c-0.1,0-0.2,0-0.2-0.1c0-0.1,0.1-0.1,0.2-0.1h0.2
	c0,0,0.3,0,1.1,0c0.7,0,1.3,0,1.8,0c1.2,0,2,0,2.3-0.1c0,0.1,0,0.4,0.1,0.8c0,0.3,0.1,0.6,0.1,0.8C31.5,45.4,31.6,45.5,31.6,45.6z"
	/>
<path style="fill:#8DE528;" d="M49.8,47.6c0,12.3-9.9,20.4-25,20.4C9.8,68,0,60.1,0,47.7c0-12.3,9.8-20.1,25-20.1
	S49.8,35.4,49.8,47.6z M39.6,47.7c0-7.5-5.6-12.1-14.6-12.1c-9.2,0-14.8,4.6-14.8,12.1C10.2,55.3,15.8,60,25,60
	C34.1,60,39.6,55.3,39.6,47.7z"/>
<rect style="fill:#2D2D2D;" width="100" height="21.2"/>
<path style="fill:#C91F50;" d="M94.3,67.3H55.6C64.2,57,72.9,46.8,81.5,36.5H63.8v-8.2c12.1,0,36.2,0,36.2,0L74.2,59h20.1V67.3z"/>
<path style="fill:#FFEBEF;" d="M17.1,8.2c0,0.1-0.1,0.2-0.2,0.2c-0.1,0-0.2-0.1-0.2-0.4c0-0.2,0-0.3-0.1-0.5
	c-0.1-0.3-0.2-0.6-0.3-0.9c-0.2-0.3-0.5-0.5-1-0.6C15,6,14.8,5.9,14.6,5.9c-0.4,0-0.7,0-0.8,0v8.7c0,0.3,0.1,0.6,0.3,0.6
	c0.1,0,0.4,0.1,0.8,0.1c0.1,0,0.2,0,0.2,0.1c0,0.1-0.1,0.1-0.2,0.1c-0.1,0-0.1,0-0.2,0c-0.6,0-1,0-1.2,0c-0.3,0-0.6,0-0.9,0
	c-0.3,0-0.6,0-1.1,0c-0.2,0-0.3,0-0.3-0.1c0-0.1,0.2-0.1,0.6-0.1c0.3,0,0.5-0.1,0.6-0.2c0-0.1,0.1-0.3,0.1-0.6V6
	c-0.9,0-1.5,0.1-1.8,0.1c-0.6,0.2-1,0.8-1.1,1.8c0,0.3-0.1,0.4-0.2,0.4C9.2,8.3,9.2,8.2,9.2,8c0-0.1,0-0.2,0-0.3l0-0.3
	c0-0.4,0.1-1,0.1-1.7H10l2.9,0c0.3,0,0.9,0,1.6,0l2.4,0C16.9,6.2,17,7,17.1,8C17.1,8,17.1,8.1,17.1,8.2C17.1,8.2,17.1,8.2,17.1,8.2z
	 M27.1,15.5c0,0.1-0.1,0.1-0.3,0.1h-2c-0.1,0-0.3,0-0.6,0c-0.3,0-0.4,0-0.6,0c-0.2,0-0.3,0-0.3-0.1s0.2-0.1,0.7-0.2
	c0.2,0,0.4-0.1,0.4-0.1s0.1-0.3,0.1-0.7v-4.2h-4.3v4.1c0,0.4,0,0.7,0.1,0.8c0.1,0.1,0.3,0.1,0.7,0.2c0.2,0,0.4,0.1,0.4,0.1
	c0,0.1-0.1,0.1-0.3,0.1H21c-0.2,0-0.5,0-0.7,0c-0.3,0-0.4,0-0.5,0c-0.1,0-0.3,0-0.6,0s-0.7,0-1.2,0c-0.2,0-0.3,0-0.3-0.1
	s0.1-0.1,0.3-0.1c0.1,0,0.3,0,0.4,0c0.2,0,0.3-0.1,0.4-0.1c0,0,0-0.3,0-0.8V6.8c0-0.4,0-0.7-0.1-0.8c0-0.1-0.2-0.1-0.5-0.1
	c-0.3,0-0.5,0-0.5,0c-0.1,0-0.1-0.1-0.1-0.1c0-0.1,0.1-0.1,0.2-0.1c0,0,0.1,0,0.2,0c0.2,0,0.8,0,1.7,0c0.5,0,0.8,0,1,0
	c0.1,0,0.2,0,0.3,0c0.2,0,0.3,0,0.3,0.1c0,0.1-0.2,0.1-0.5,0.1c-0.3,0-0.5,0-0.6,0.1c-0.1,0.1-0.1,0.3-0.1,0.7V10h4.3V6.9
	c0-0.5,0-0.8-0.1-0.9c-0.1-0.1-0.3-0.1-0.8-0.1c-0.1,0-0.2,0-0.2-0.1s0.1-0.1,0.2-0.1h0.1c0.1,0,0.4,0,0.7,0c0.3,0,0.6,0,0.8,0
	c0.6,0,1,0,1.2,0c0.2,0,0.3,0,0.4,0c0.2,0,0.3,0,0.3,0.1c0,0.1-0.2,0.1-0.6,0.1c-0.1,0-0.2,0-0.3,0C26.1,6,26,6,26,6.1s0,0.3,0,0.7
	v7.7c0,0.5,0,0.7,0.1,0.8c0.1,0.1,0.4,0.2,0.8,0.2C27,15.4,27.1,15.4,27.1,15.5z M35.6,13.3c0,0,0,0.3,0,0.7c0,0.4,0,0.8,0,1.2v0.5
	c-0.9-0.1-2.8-0.1-5.6-0.1c-0.3,0-0.7,0-1,0s-0.5,0-0.7,0h-0.1c-0.2,0-0.3,0-0.3-0.1c0-0.1,0-0.1,0.1-0.1c0,0,0.2,0,0.5,0
	c0.2,0,0.4-0.1,0.5-0.2c0.1-0.1,0.1-0.3,0.1-0.7V6.4c0-0.3,0-0.4-0.1-0.5c-0.1-0.1-0.3-0.1-0.8-0.1c-0.2,0-0.2,0-0.2-0.1
	s0.1-0.1,0.3-0.1h2.4c0.1,0,0.6,0,1.6,0c1,0,1.7,0,2,0c0.3,0,0.5,0,0.8-0.1c0,0.4,0.1,1,0.1,1.7l0.1,0.6c0,0,0,0.1,0,0.2
	c0,0.1,0,0.1-0.1,0.1c-0.1,0-0.2-0.1-0.2-0.4C34.7,7,34.5,6.4,34,6.2C33.7,6,32.9,6,31.6,6h-1.2v4.2h0.3c1.1,0,1.7-0.1,2-0.2
	c0.2-0.2,0.4-0.6,0.5-1.4c0-0.2,0.1-0.3,0.2-0.3c0.1,0,0.2,0.1,0.2,0.3c0,0.2,0,0.4,0,0.8c0,0.3,0,0.6,0,0.8c0,1,0,1.7,0,2.1
	c0,0.1,0,0.2,0,0.2c0,0.1-0.1,0.2-0.2,0.2c-0.1,0-0.1,0-0.1-0.1c0-0.1-0.1-0.3-0.1-0.8c-0.1-0.6-0.3-0.9-0.7-1.1
	c-0.2-0.1-0.6-0.1-1.3-0.1h-0.6v4.8c2.1,0,3.3,0,3.7-0.1c0.6-0.1,1-0.7,1.1-1.8c0-0.2,0.1-0.4,0.2-0.4C35.5,13,35.6,13.1,35.6,13.3z
	 M52,5.7c0,0.1-0.2,0.1-0.5,0.1c-0.4,0-0.6,0.1-0.7,0.4c-0.1,0.2-0.3,0.7-0.6,1.5c-0.4,1.3-0.8,2.4-1.1,3.4
	c-0.6,1.6-1.1,3.1-1.6,4.6c0,0.1-0.1,0.2-0.1,0.2c0,0-0.1,0-0.1-0.1c0-0.1-0.2-0.4-0.4-1c-0.3-0.8-0.6-1.5-0.9-2.3
	c-0.2-0.6-0.5-1.2-0.7-1.8c-0.7,1.6-1.3,3.3-2,5.1c0,0.1-0.1,0.2-0.1,0.2c0,0-0.1-0.1-0.2-0.2c-0.3-0.7-1.4-3.6-3.3-8.8
	c-0.1-0.4-0.2-0.6-0.3-0.7c-0.1-0.1-0.2-0.1-0.5-0.2c-0.5,0-0.7-0.1-0.7-0.2c0-0.1,0.1-0.1,0.2-0.1c0.1,0,0.1,0,0.2,0
	c0.5,0,1.1,0,1.6,0c0.1,0,0.3,0,0.6,0c0.3,0,0.6,0,1.1,0H42c0.2,0,0.2,0,0.2,0.1c0,0.1-0.1,0.2-0.4,0.2C41.3,5.9,41,6,41,6.1
	c0,0.3,0.9,2.8,2.6,7.5c0.6-1.6,1.1-2.8,1.4-3.6l-1.4-3.7C43.5,6.2,43.5,6,43.3,6c-0.1-0.1-0.3-0.1-0.6-0.1c-0.3,0-0.4-0.1-0.4-0.1
	c0-0.1,0.1-0.2,0.3-0.2c0.2,0,0.3,0,0.6,0c0.2,0,0.6,0,1.1,0h1.1h1.6c0.4,0,0.8,0,1.3,0c0.1,0,0.1,0,0.2,0c0.2,0,0.3,0.1,0.3,0.2
	c0,0.1-0.1,0.1-0.2,0.1h-0.2c-0.4,0-0.8,0.1-1,0.2c-0.1,0-0.3,0.4-0.5,1c-0.1,0.3-0.3,0.7-0.6,1.4c-0.1,0.1-0.1,0.4-0.3,0.6
	c0.1,0.2,0.3,0.7,0.6,1.6c0.5,1.1,0.8,2.1,1.1,2.9C48.3,12,49,10.2,49.7,8c0.4-1.1,0.6-1.8,0.6-1.9c0-0.2-0.2-0.3-0.5-0.3
	c-0.5,0-0.7-0.1-0.7-0.2c0-0.1,0.1-0.1,0.3-0.1c0.2,0,0.3,0,0.4,0c0.2,0,0.4,0,0.6,0h1.1C51.8,5.6,51.9,5.6,52,5.7
	C52,5.7,52,5.7,52,5.7z M45.9,5.9h-0.2h-0.2C45.2,5.9,45,6,45,6.1c0,0,0.3,0.9,0.8,2.5c0.2-0.5,0.5-1.1,0.8-1.9
	c0-0.1,0.1-0.2,0.2-0.4l0-0.1C46.8,6,46.5,5.9,45.9,5.9z M55.7,15.5c0,0.1-0.1,0.1-0.2,0.1h-0.1c-0.1,0-0.7,0-2,0
	c-0.2,0-0.5,0-0.7,0c-0.1,0-0.3,0-0.6,0c-0.1,0-0.2,0-0.2-0.1c0-0.1,0.1-0.1,0.4-0.1c0.4,0,0.6-0.1,0.7-0.1c0.1-0.1,0.1-0.4,0.1-0.8
	V6.8c0-0.5,0-0.7-0.1-0.8c-0.1-0.1-0.3-0.2-0.8-0.2c-0.2,0-0.3,0-0.3-0.1c0-0.1,0.1-0.1,0.2-0.1h2c0.1,0,0.4,0,0.8,0l0.6,0
	c0.2,0,0.2,0,0.2,0.1c0,0.1-0.2,0.1-0.6,0.1c-0.2,0-0.4,0.1-0.4,0.1c-0.1,0.1-0.1,0.3-0.1,0.6v7.7c0,0.5,0,0.8,0.1,0.9
	c0.1,0.1,0.4,0.2,0.9,0.2C55.7,15.4,55.7,15.4,55.7,15.5z M63.7,12.5c0,0.1,0,0.1,0,0.2l-0.1,0.5c-0.1,0.4-0.2,1-0.3,1.9
	c0,0.1,0,0.3-0.1,0.6c0.1,0-0.2,0-0.7,0c-0.5,0-1,0-1.6,0H60c-1.4,0-2.3,0-2.9,0.1c0,0-0.1,0-0.2,0c-0.1,0-0.2,0-0.2-0.1l0-0.1
	c0,0,0.1-0.2,0.3-0.7c0.6-1.3,1.9-3.6,3.7-7c0.4-0.7,0.7-1.3,0.9-1.8c-0.2,0-0.7-0.1-1.4-0.1c-1.2,0-1.9,0.2-2.2,0.7
	c-0.1,0.1-0.2,0.4-0.3,0.8c-0.1,0.4-0.2,0.7-0.2,1c0,0.2-0.1,0.3-0.2,0.3c-0.1,0-0.1,0-0.1-0.1c0-0.1,0-0.1,0-0.2l0.1-0.7
	c0-0.2,0.1-0.5,0.1-0.7l0.1-0.6c0-0.2,0.1-0.5,0.2-0.8c0.6,0.1,1.5,0.1,2.7,0.1c0.4,0,0.8,0,1.3,0c0.5,0,0.9,0,1.2,0h0.2
	c0.1,0,0.2,0,0.2,0c0,0.2-0.2,0.6-0.5,1.2c0,0.1-1.4,2.7-3.9,7.5c-0.1,0.2-0.3,0.5-0.5,1c0.5,0,1,0.1,1.7,0.1c0.6,0,1.1,0,1.3-0.1
	c0.5-0.1,0.9-0.3,1.2-0.6c0.4-0.4,0.7-1.1,0.8-2.1c0-0.2,0.1-0.2,0.2-0.2C63.6,12.4,63.7,12.4,63.7,12.5z M73.4,15.5
	c0,0.1-0.1,0.1-0.2,0.1c-0.1,0-0.2,0-0.3,0l-1.8-0.1l-1.8,0.1c-0.1,0-0.1,0-0.2,0c-0.2,0-0.3,0-0.3-0.2c0-0.1,0.1-0.2,0.4-0.2
	c0.8,0,1.3-0.1,1.3-0.3c0,0,0,0,0-0.1l-0.1-0.4l-0.1-0.2c-0.1-0.3-0.3-1-0.6-2h-3.1c-0.6,1.5-0.9,2.4-0.9,2.6c0,0.1,0.1,0.2,0.2,0.2
	c0,0,0.3,0,0.7,0.1c0.3,0,0.4,0.1,0.4,0.1c0,0.1-0.1,0.1-0.4,0.1c-0.4,0-1,0-1.5-0.1c-0.1,0-0.3,0-0.4,0c-0.2,0-0.3,0-0.4,0
	c-0.1,0-0.1,0-0.2,0c-0.1,0-0.2,0-0.2-0.1c0-0.1,0.2-0.1,0.5-0.1c0.3,0,0.5-0.1,0.7-0.1c0.1-0.1,0.2-0.2,0.3-0.5
	c1.2-3.5,2.2-6.4,3-8.5c0-0.1,0.1-0.2,0.1-0.4l0.1-0.3c0-0.1,0.1-0.2,0.1-0.2c0,0,0.1,0,0.1,0.1c0.1,0.4,0.4,1.2,0.8,2.3
	c0.3,0.9,1.2,3.3,2.6,7c0.1,0.2,0.2,0.4,0.3,0.4c0.1,0.1,0.4,0.1,0.7,0.1C73.3,15.4,73.4,15.4,73.4,15.5z M69.5,12.1
	c-0.2-0.4-0.4-1.1-0.8-2.1L68,8c-0.4,1.1-0.9,2.4-1.4,4.1H69.5z M81.3,15.2c0,0.4-0.3,0.6-1,0.6c-0.7,0-1.3-0.3-1.7-0.9
	c-0.2-0.3-0.3-0.5-0.4-0.8c-0.1-0.2-0.1-0.9-0.2-1.9c-0.1-0.6-0.3-1-0.6-1.3c-0.3-0.3-0.9-0.4-1.6-0.4V15c0,0.2,0.2,0.3,0.5,0.4
	c0.1,0,0.3,0,0.7,0c0.1,0,0.2,0,0.2,0.1c0,0.1-0.1,0.1-0.2,0.1h-0.2c-0.1,0-0.5,0-1.2,0c-0.1,0-0.4,0-0.7,0c-0.3,0-0.6,0-0.7,0h-0.6
	c-0.2,0-0.3,0-0.3-0.1c0-0.1,0.1-0.1,0.4-0.1c0.4,0,0.7-0.1,0.7-0.2c0,0,0.1-0.2,0.1-0.6V6.7c0-0.4,0-0.6-0.1-0.7
	c-0.1-0.1-0.3-0.1-0.7-0.1c-0.2,0-0.4,0-0.4-0.1c0-0.1,0.1-0.1,0.2-0.1c0,0,0.1,0,0.1,0l1.9,0c0.2,0,0.5,0,0.8,0c0.4,0,0.6,0,0.8,0
	c0.9,0,1.6,0.2,2.1,0.6c0.5,0.4,0.8,0.9,0.8,1.6c0,0.7-0.3,1.2-0.8,1.7c-0.5,0.4-1.3,0.7-2.2,0.8c-0.1,0-0.1,0-0.1,0
	c0,0,0,0.1,0.1,0.1c1,0.2,1.7,0.5,2.1,1.1c0.4,0.5,0.6,1.5,0.8,2.9c0.1,0.8,0.3,1.2,0.8,1.2c0.1,0,0.2,0,0.2-0.1c0,0,0,0,0,0
	c0-0.1-0.1-0.2-0.1-0.3c0-0.2,0.1-0.3,0.3-0.3C81.1,14.8,81.3,15,81.3,15.2z M78.3,8c0-1.4-0.6-2.1-1.8-2.1c-0.3,0-0.5,0-0.6,0.1
	c-0.1,0.1-0.2,0.2-0.2,0.5v3.7c0.9,0,1.6-0.2,2-0.5C78.1,9.3,78.3,8.8,78.3,8z M90.8,10.6c0,1.7-0.6,3-1.8,4c-0.9,0.7-2,1-3.5,1
	c0,0-0.2,0-0.5,0c-0.3,0-0.7,0-1.3,0h-0.7H82c-0.1,0-0.1,0-0.2,0c-0.2,0-0.3,0-0.3-0.1c0-0.1,0.2-0.1,0.5-0.1c0.4,0,0.6-0.1,0.7-0.2
	c0-0.1,0.1-0.2,0.1-0.5V6.8c0-0.5,0-0.7-0.1-0.8c-0.1-0.1-0.3-0.1-0.7-0.1c-0.2,0-0.3-0.1-0.3-0.2c0-0.1,0.1-0.1,0.2-0.1
	c0,0,0.1,0,0.3,0c0.2,0,0.4,0,0.6,0h1.5c1.7,0,2.9,0.1,3.7,0.4c0.9,0.3,1.6,0.9,2.1,1.7C90.6,8.5,90.8,9.5,90.8,10.6z M89.2,10.6
	c0-1.6-0.3-2.8-0.9-3.5c-0.6-0.7-1.6-1.1-2.9-1.1c-0.6,0-1,0.1-1.2,0.2c-0.1,0.1-0.1,0.3-0.1,0.7v7.7c0,0.3,0,0.4,0,0.5
	c0,0.1,0.1,0.1,0.1,0.1c0.2,0.1,0.7,0.2,1.4,0.2c1,0,1.9-0.4,2.5-1.1C88.9,13.5,89.2,12.2,89.2,10.6z"/>
</svg>
