<svg xmlns="http://www.w3.org/2000/svg">
    <symbol id="conversation" viewBox="0 0 100 100">
        <path d="M94.8,30.3l-16.2-9.5H58.1L45.9,14H21.5L5.2,23.5L0,36v15.4L0.6,52c7.1,5.9,14.3,9.8,21.4,11.7v15.6l15.7-17.8l7.6,5.2h15.5
	L77.9,86V70.4c7.1-1.8,14.3-5.8,21.4-11.7l0.6-0.5V42.8L94.8,30.3z M25.6,70v-9.1l-1.4-0.3C17.3,59,10.4,55.4,3.5,49.8V36.7L8,26
	l14.4-8.5H45l7.5,4.2l-12.8,7.1l-1.3,2.6H12.6V34h24.5l-3.4,6.9H16.2v2.7h17.1v14.8l1.6,1.1L25.6,70z M96.5,56.6
	c-6.9,5.6-13.8,9.2-20.7,10.7l-1.4,0.3v9.1l-12-13.6H46.5l-4.7-3.3l-4.5-3.1l-0.4-0.3V43.5v-1.1l5.6-11.1l12.6-7h2.2h4.2h16.2
	L92,32.8l4.5,10.8V56.6z M80.2,40.3h-27v-2.7h27V40.3z M77.4,49.8H54.1v-2.7h23.4V49.8z"/>
    </symbol>
    <symbol id="home" viewBox="0 0 100 100">
        <path d="M97.5,100H70.6V60.8H29.4V100H2.5V39L50,0l47.5,39V100z M75.7,95h16.8V41.4L50,6.5L7.6,41.4V95h16.8V55.8h51.3V95z"/>
    </symbol>
    <symbol id="speakers" viewBox="0 0 100 100">
        <path d="M33.1,99V75.5C22.4,72.8,11.6,66.9,0.9,58L0,57.2V34.1l7.8-18.8L32.2,1h36.7l21.5,12l9.6,19.3v25.1L81.9,69.9H58.7L33.1,99z
	 M5.2,54.8c10.3,8.4,20.8,13.9,31,16.1l2.1,0.5v13.8l18.1-20.5h23.9l14.5-10V33.5l-8.3-16.7L67.5,6.3H33.6L12,19L5.2,35.1V54.8z"/>
    </symbol>
    <symbol id="sponsors" viewBox="0 0 100 100">
        <path d="M50.1,96.5L0,46.7V25.1L27.2,3.5L50,26.3L72.2,4.2h1.5l0.5,0.4L100,25.2v21.5L50.1,96.5z M3.8,45.1l46.3,46l46-46V27
	l-23-18.4L50,31.8l-1.4-1.3L26.9,8.6L3.8,27V45.1z"/>
    </symbol>
    <symbol id="tea-cup" viewBox="0 0 100 100">
        <path d="M84.8,48.4v-7.6H0v24.3l7.4,18.2L30.6,96h23.6l23.2-12.7l6-14.6h10.3l6.4-9.1V48.4H84.8z M74.3,80.6L53.2,92.2H31.6
	L10.5,80.6L3.8,64.4V44.6H81v3.8v16L74.3,80.6z M96.2,58.4l-4.5,6.5h-6.9V52.1h11.4V58.4z M44.3,23.1h-3.8V4h3.8V23.1z M58.5,29.8
	h-3.8V10.7h3.8V29.8z M26.3,31.1h-3.8V12h3.8V31.1z"/>
    </symbol>
    <symbol id="agenda" viewBox="0 0 100 100">
        <path d="M56.7,54.9H43.1v-3.8h13.6V54.9z M56.8,70.1H43.2v3.8h13.6V70.1z M30.3,51.1H16.7v3.8h13.6V51.1z M30.4,70.1H16.8v3.8h13.6
	V70.1z M83.2,51.1H69.6v3.8h13.6V51.1z M83.3,70.1H69.7v3.8h13.6V70.1z M98.5,6.1v20.3v3.8V100h-97V30.2v-3.8V6.1H18V0h3.8v6.1h16.1
	V0h3.8v6.1h16.1V0h3.8v6.1h16.1V0h3.8v6.1H98.5z M94.7,30.2H5.3v66h89.4V30.2z M94.7,26.4V9.9h-13v6.1h-3.8V9.9H61.7v6.1h-3.8V9.9
	H41.8v6.1h-3.8V9.9H21.8v6.1H18V9.9H5.3v16.5H94.7z"/>
    </symbol>
    <symbol id="tickets" viewBox="0 0 100 100">
        <path d="M100,72.7l-6.2-7.2l6.1-7.1l-7.6-10.5h-5.6l4.7-2.9l1.2-12.9l-8.9-2.9l1.6-9.4l-9-3l1.6-9.3l-11.9-5L1.2,41.6L0,54.6
		l8.9,2.9l-1.6,9.4l5.3,1.7L9,72.7l6.2,7.2L9.1,87l7.6,10.5h75.5L99.9,87l-6.1-7.1L100,72.7z M11.4,64.4l0.5-2.8l1.1-6.6l-1.2-0.4
		l-8-2.6l0.7-8.2L66.1,6.6l7.5,3.2L72,19.3l9.1,3l-1.6,9.4l9.2,3l-0.7,8.2l-8.3,5l-6.1,3.7l-11.8,7.2l-6.1,3.7L33.1,76l-3.7,2.2
		L26.4,80l-7.5-3.2l1.6-9.5l-1.6-0.5l-3.8-1.2L11.4,64.4z M33.1,80.2l29.6-17.9h13.2V83H33.1V80.2z M16.3,69.8L16.3,69.8l-0.8,4.8
		l-1.7-1.9L16.3,69.8z M95.3,87.2l-4.8,6.6H18.6l-4.8-6.6l5.4-6.2l7.5,3.2l2.8-1.7v4.2h50.1v-28H68.7l11.8-7.2h9.8l4.8,6.6l-6.3,7.3
		l6.2,7.2l-6.2,7.2L95.3,87.2z"/>
        <path d="M22,51.5L29.5,64l2.5,4.2l1.1-0.7l8.7-5.2l6.1-3.7l11.8-7.2l6.1-3.7l9.2-5.5l-14.4-24L17.6,44.3l2.1,3.6L22,51.5z
		 M59.3,23.4l10.6,17.7l-11.2,6.8l-6.1,3.7l-11.8,7.2l-6.1,3.7l-1.5,0.9L33.1,63l-2.6-4.3l-4.3-7.2L24,47.9l-1.4-2.3L59.3,23.4z"/>
    </symbol>
    <symbol id="logo-small" viewBox="0 0 100 100">
        <path d="M47,100V61.2H15L53,0v38.8h32L47,100z M25.6,55.4H53v23.7l21.4-34.4H47V20.9L25.6,55.4z"/>
    </symbol>
</svg>